<?xml version="1.0" encoding="UTF-8"?>
<svg width="160px" height="34px" viewBox="0 0 160 34" version="1.1" xmlns="http://www.w3.org/2000/svg" xmlns:xlink="http://www.w3.org/1999/xlink">
    <!-- Generator: Sketch 50.2 (55047) - http://www.bohemiancoding.com/sketch -->
    <title>logo-smartlabel</title>
    <desc>Created with Sketch.</desc>
    <defs>
        <polygon id="path-1" points="6.1302682e-05 0.603831418 32.655387 0.603831418 32.655387 33.7164138 6.1302682e-05 33.7164138"></polygon>
        <polygon id="path-3" points="0.381425287 0.418574713 2.82114943 0.418574713 2.82114943 2.7290728 0.381425287 2.7290728"></polygon>
    </defs>
    <g id="Symbols" stroke="none" stroke-width="1" fill="none" fill-rule="evenodd">
        <g id="Footer/Mobile" transform="translate(-20.000000, -508.000000)">
            <g id="Group-2" transform="translate(20.000000, 508.000000)">
                <g id="logo-smartlabel">
                    <path d="M41.6858238,21.9157088 C42.2252874,22.6200766 42.8977778,23.1730268 43.6824521,23.5616858 C44.4677395,23.9491188 45.3836015,24.1452874 46.4042912,24.1452874 C47.1178544,24.1452874 47.771954,24.0533333 48.3494253,23.8731034 C48.9330268,23.6910345 49.4418391,23.429272 49.8629885,23.0970115 C50.2896552,22.7610728 50.6243678,22.3515709 50.857931,21.8777011 C51.0927203,21.4068966 51.2116475,20.8882759 51.2116475,20.3371648 C51.2116475,19.6095019 50.99341,19.0093487 50.5649042,18.5520307 C50.1639847,18.124751 49.6606897,17.7679693 49.0697318,17.4902682 C48.4990038,17.2229885 47.8694253,16.9894253 47.1981609,16.7975479 C46.5544828,16.6154789 45.9506513,16.411341 45.4032184,16.1955556 C44.8784674,15.9871264 44.435249,15.7351724 44.0858238,15.4464368 C43.7786973,15.1950958 43.6303448,14.8603831 43.6303448,14.4263602 C43.6303448,14.0438314 43.7094253,13.7262835 43.8657471,13.4816858 C44.0275862,13.2291188 44.2403065,13.0225287 44.4977778,12.8668199 C44.7650575,12.7062069 45.0721839,12.5909579 45.4118008,12.525977 C45.7667433,12.4554789 46.1351724,12.4211494 46.5072797,12.4211494 C47.2159387,12.4211494 47.7970881,12.5541762 48.2335632,12.8183908 C48.7013027,13.0997701 49.0593103,13.3578544 49.2977778,13.5865134 L50.3362452,12.5823755 C49.9849808,12.1955556 49.4731034,11.8375479 48.8171648,11.52 C48.1508046,11.1975479 47.382069,11.0344828 46.5324138,11.0344828 C45.9236782,11.0344828 45.3449808,11.1129502 44.8128736,11.268046 C44.275249,11.4237548 43.8013793,11.6505747 43.405364,11.9405364 C43.0019923,12.2366284 42.6801533,12.594023 42.4478161,13.0041379 C42.2081226,13.4228352 42.0867433,13.9022222 42.0867433,14.4263602 C42.0867433,15.1718008 42.3043678,15.7799234 42.7322605,16.2347893 C43.1350192,16.663295 43.6377011,17.0237548 44.2243678,17.3063602 C44.7950958,17.5846743 45.4277395,17.8182375 46.102069,18.0027586 C46.7500383,18.1793103 47.3520307,18.3816092 47.8908812,18.6041379 C48.4137931,18.8180843 48.8551724,19.084751 49.2027586,19.3943295 C49.5154023,19.6726437 49.667433,20.0300383 49.667433,20.4836782 C49.667433,21.1751724 49.3964751,21.7103448 48.8392337,22.1210728 C48.2623755,22.5434483 47.4783142,22.7586207 46.5072797,22.7586207 C46.0064368,22.7586207 45.5564751,22.7009962 45.1696552,22.5875862 C44.776705,22.4729502 44.4327969,22.330728 44.1477395,22.1633716 C43.8614559,21.9972414 43.612567,21.8133333 43.4078161,21.6177778 C43.199387,21.4185441 43.0265134,21.2309579 42.8898084,21.052567 L41.6858238,21.9157088 Z" id="Fill-1" fill="#000000"></path>
                    <path d="M69.6429119,23.9055939 L69.6429119,15.8902682 C69.6429119,13.9365517 68.1765517,12.5192337 66.1572414,12.5192337 C64.1514176,12.5192337 62.6954789,13.9365517 62.6954789,15.8902682 L62.6954789,23.9055939 L61.1941762,23.9055939 L61.1941762,15.8902682 C61.1941762,13.9365517 59.7284291,12.5192337 57.7078927,12.5192337 C55.702069,12.5192337 54.2461303,13.9365517 54.2461303,15.8902682 L54.2461303,23.9055939 L52.7203065,23.9055939 L52.7203065,15.8902682 C52.7203065,13.0764751 54.8180843,11.0344828 57.7078927,11.0344828 C59.5383908,11.0344828 61.097318,11.8761686 61.9359387,13.303295 C62.7923372,11.8761686 64.3494253,11.0344828 66.1572414,11.0344828 C69.0476628,11.0344828 71.1454406,13.0764751 71.1454406,15.8902682 L71.1454406,23.9055939 L69.6429119,23.9055939 Z" id="Fill-3" fill="#000000"></path>
                    <path d="M79.3924904,24.1845211 C75.840613,24.1845211 72.9501916,21.256092 72.9501916,17.6563985 C72.9501916,14.0045977 75.840613,11.0344828 79.3924904,11.0344828 C82.9455939,11.0344828 85.8366284,14.0045977 85.8366284,17.6563985 L85.8366284,23.9062069 L84.3359387,23.9062069 L84.3359387,21.7630651 C83.154023,23.2876628 81.3406897,24.1845211 79.3924904,24.1845211 M79.3924904,12.5192337 C76.6681992,12.5192337 74.4514943,14.8229885 74.4514943,17.6563985 C74.4514943,20.4499617 76.6681992,22.7224521 79.3924904,22.7224521 C82.1180077,22.7224521 84.3359387,20.4499617 84.3359387,17.6563985 C84.3359387,14.8229885 82.1180077,12.5192337 79.3924904,12.5192337" id="Fill-5" fill="#000000"></path>
                    <path d="M88.2758621,23.8798467 L88.2758621,16.3518774 C88.2758621,13.0715709 90.3301149,11.0344828 93.6361686,11.0344828 C93.919387,11.0344828 94.2136398,11.0498084 94.5121839,11.0792337 L94.789272,11.107433 L94.789272,12.4959387 L94.4545594,12.4689655 C94.2357088,12.4505747 94.0205364,12.4419923 93.8139464,12.4419923 C91.2490421,12.4419923 89.7771648,13.8672797 89.7771648,16.3518774 L89.7771648,23.8798467 L88.2758621,23.8798467 Z" id="Fill-7" fill="#000000"></path>
                    <path d="M100.894406,23.7296552 C99.656705,23.7296552 98.6249808,23.2999234 97.9108046,22.4870498 C97.2223755,21.7011494 96.8582375,20.5897318 96.8582375,19.2711111 L96.8582375,8.58237548 L98.3840613,8.58237548 L98.3840613,11.1393103 L101.677241,11.1393103 L101.677241,12.6007663 L98.3840613,12.6007663 L98.3840613,19.2711111 C98.3840613,21.2947126 99.315249,22.3203065 101.151264,22.3209195 C101.217471,22.3209195 101.285517,22.3190805 101.356015,22.3160153 L101.677241,22.3043678 L101.677241,23.6830651 L101.396475,23.7069732 C101.225441,23.7222989 101.056858,23.7296552 100.894406,23.7296552" id="Fill-9" fill="#000000"></path>
                    <path d="M107.565364,23.7639847 C106.344215,23.7639847 105.329042,23.3391571 104.630192,22.5348659 C103.957088,21.7612261 103.601533,20.6651341 103.601533,19.3649042 L103.601533,6.1302682 L105.120613,6.1302682 L105.120613,19.3649042 C105.120613,21.3376245 106.027893,22.3386973 107.816092,22.3386973 C107.881686,22.3386973 107.947893,22.3368582 108.016552,22.3344061 L108.355556,22.3209195 L108.355556,23.7161686 L108.058851,23.7419157 C107.889655,23.7572414 107.725364,23.7639847 107.565364,23.7639847" id="Fill-11" fill="#000000"></path>
                    <path d="M116.08092,23.9908046 C112.579923,23.9908046 109.731801,21.1046743 109.731801,17.5577011 C109.731801,13.9604598 112.579923,11.0344828 116.08092,11.0344828 C119.582529,11.0344828 122.430651,13.9604598 122.430651,17.5577011 L122.430651,23.7173946 L120.91341,23.7173946 L120.91341,21.6557854 C119.754789,23.1178544 117.98682,23.9908046 116.08092,23.9908046 M116.08092,12.5351724 C113.416705,12.5351724 111.249655,14.788046 111.249655,17.5577011 C111.249655,20.2893487 113.416705,22.51341 116.08092,22.51341 C118.744521,22.51341 120.91341,20.2893487 120.91341,17.5577011 C120.91341,14.788046 118.744521,12.5351724 116.08092,12.5351724" id="Fill-13" fill="#000000"></path>
                    <path d="M130.179923,24.0171648 C126.67954,24.0171648 123.831418,21.1310345 123.831418,17.5840613 L123.831418,6.1302682 L125.348659,6.1302682 L125.348659,13.4424521 C126.522605,11.9503448 128.291801,11.0608429 130.179923,11.0608429 C133.682146,11.0608429 136.529655,13.9868199 136.529655,17.5840613 C136.529655,21.1310345 133.682146,24.0171648 130.179923,24.0171648 M130.179923,12.5615326 C127.516935,12.5615326 125.348659,14.8144061 125.348659,17.5840613 C125.348659,20.3157088 127.516935,22.5397701 130.179923,22.5397701 C132.844138,22.5397701 135.011801,20.3157088 135.011801,17.5840613 C135.011801,14.8144061 132.844138,12.5615326 130.179923,12.5615326" id="Fill-15" fill="#000000"></path>
                    <path d="M150.059157,18.925977 C149.607969,20.365364 148.730115,21.3455939 147.188352,22.1222989 C146.571034,22.3871264 145.918774,22.5207663 145.246897,22.5207663 C142.605977,22.5207663 140.363525,20.5413027 140.094406,18.0432184 L151.786667,18.0432184 C151.786667,18.0432184 151.782375,16.6148659 151.618697,15.976092 C151.59295,15.8749425 151.569655,15.7786973 151.543295,15.6677395 C150.728582,12.9397701 148.036169,11.0344828 144.996782,11.0344828 C144.747893,11.0344828 144.497165,11.0473563 144.209655,11.0804598 C141.659464,11.6695785 139.76092,13.1794636 139.002605,15.2159387 C138.699157,15.9846743 138.544061,16.7399234 138.544061,17.4724904 C138.655632,20.000613 139.862069,21.8887356 142.259617,23.2582375 C143.17977,23.6769349 144.158774,23.8884291 145.169042,23.8884291 C148.348812,23.8884291 150.986667,21.8550192 151.648123,18.925977 L150.059157,18.925977 Z M144.725824,12.5302682 C147.412107,12.2844444 149.928582,14.2553257 150.271264,16.6908812 L140.109732,16.6908812 C140.438927,14.6219157 142.273716,12.5314943 144.725824,12.5302682 Z" id="Fill-17" fill="#000000"></path>
                    <path d="M157.832337,23.7639847 C156.611188,23.7639847 155.596628,23.3391571 154.896552,22.5348659 C154.224674,21.7612261 153.869732,20.6651341 153.869732,19.3649042 L153.869732,6.1302682 L155.386973,6.1302682 L155.386973,19.3649042 C155.386973,21.3376245 156.294253,22.3386973 158.083678,22.3386973 C158.148659,22.3386973 158.215479,22.3368582 158.284138,22.3344061 L158.623142,22.3209195 L158.623142,23.7161686 L158.325824,23.7419157 C158.157241,23.7572414 157.992337,23.7639847 157.832337,23.7639847" id="Fill-19" fill="#000000"></path>
                    <g id="Group-23">
                        <mask id="mask-2" fill="white">
                            <use xlink:href="#path-1"></use>
                        </mask>
                        <g id="Clip-22"></g>
                        <path d="M32.1042759,5.3075249 C31.4152337,3.38139464 29.9163831,1.86108812 28.016,1.16101149 C26.2750038,0.603770115 24.656613,0.603770115 21.4228966,0.603770115 L11.2300996,0.603770115 C7.99638314,0.603770115 6.38044444,0.603770115 4.63944828,1.16101149 C2.73906513,1.86108812 1.24082759,3.38139464 0.548720307,5.3075249 C6.1302682e-05,7.07304215 6.1302682e-05,8.71288889 6.1302682e-05,11.9925824 L6.1302682e-05,22.3276015 C6.1302682e-05,25.6048429 6.1302682e-05,27.2446897 0.548720307,29.0095939 C1.24082759,30.9387893 2.73906513,32.4560307 4.63944828,33.1561073 C6.38044444,33.7164138 7.99638314,33.7164138 11.2300996,33.7164138 L21.227954,33.7164138 L21.2432797,33.6146513 C21.4437395,32.1611648 21.4621303,31.1521226 21.479908,30.2589425 C21.500751,29.2198621 21.5160766,28.3971801 21.821364,27.4169502 L21.8244291,27.4022375 L21.8305594,27.3875249 C22.6005211,25.2425441 24.2612107,23.5622375 26.3828966,22.7769502 L26.4006743,22.7683678 L26.4190651,22.7628506 C27.5458084,22.4036169 28.6008276,22.3686743 29.9341609,22.3220843 C30.6924751,22.2957241 31.5525517,22.2669119 32.5805977,22.1731188 L32.655387,22.1676015 L32.655387,11.9925824 C32.655387,8.71288889 32.655387,7.07304215 32.1042759,5.3075249 M16.2796015,29.9904368 C13.3432031,29.9904368 10.963433,27.6738084 10.963433,24.8171034 C10.963433,21.9573333 13.3432031,19.640705 16.2796015,19.640705 C19.2135479,19.640705 21.593931,21.9573333 21.593931,24.8171034 C21.593931,27.6738084 19.2135479,29.9904368 16.2796015,29.9904368 M23.1044291,17.0758008 L23.1044291,17.0954176 L10.2946207,17.0954176 C10.2829732,17.0954176 10.2676475,17.1015479 10.2529349,17.1015479 C9.00603831,17.1015479 8.00496552,16.1096705 8.00496552,14.9020077 C8.00496552,13.698636 8.99990805,12.7276015 10.2406743,12.7220843 L10.2406743,12.715954 L22.8555402,12.715954 C22.8616705,12.715954 22.8702529,12.7135019 22.8825134,12.7135019 C22.8910958,12.7135019 22.8972261,12.715954 22.9094866,12.715954 L23.1044291,12.715954 L23.1044291,12.7367969 C24.2458851,12.8477548 25.1421303,13.7611648 25.1421303,14.9136552 C25.1421303,16.0428506 24.2458851,16.967295 23.1044291,17.0758008 M25.6307126,9.70783142 L25.6307126,9.73112644 L7.27423755,9.73112644 C7.26504215,9.73112644 7.24665134,9.73419157 7.23500383,9.73419157 C5.98565517,9.73419157 4.98396935,8.74476628 4.98396935,7.53403831 C4.98396935,6.33434483 5.98197701,5.36269732 7.2227433,5.35411494 L7.2227433,5.35104981 L25.6307126,5.35104981 L25.6307126,5.37127969 C26.7727816,5.47978544 27.6690268,6.39564751 27.6690268,7.54568582 C27.6690268,8.67488123 26.7727816,9.5999387 25.6307126,9.70783142" id="Fill-21" fill="#000000" mask="url(#mask-2)"></path>
                    </g>
                    <path d="M32.6994636,22.6819923 C29.4357088,29.8311111 22.0689655,33.4608429 22.0689655,33.4608429 C22.5066667,30.2749425 22.102069,29.0372414 22.6176245,27.3863602 C23.3097318,25.4602299 24.8079693,23.9399234 26.7083525,23.2361686 C28.3390038,22.7175479 29.8789272,22.9419157 32.6963985,22.6819923 L32.6994636,22.6819923 Z" id="Fill-24" fill="#000000"></path>
                    <g id="Group-28" transform="translate(156.934866, 5.517241)">
                        <mask id="mask-4" fill="white">
                            <use xlink:href="#path-3"></use>
                        </mask>
                        <g id="Clip-27"></g>
                        <path d="M0.481348659,1.09596935 C0.548168582,0.953747126 0.637670498,0.831754789 0.749854406,0.732444444 C0.862038314,0.632521073 0.992,0.555279693 1.13912644,0.50010728 C1.28625287,0.444934866 1.44012261,0.418574713 1.60134866,0.418574713 C1.76257471,0.418574713 1.91644444,0.444934866 2.06357088,0.50010728 C2.21069732,0.555279693 2.340659,0.632521073 2.45284291,0.732444444 C2.56502682,0.831754789 2.65452874,0.953747126 2.72134866,1.09596935 C2.78816858,1.23757854 2.82127203,1.39696552 2.82127203,1.57167816 C2.82127203,1.74945594 2.78816858,1.90945594 2.72134866,2.05167816 C2.65452874,2.19390038 2.56502682,2.31589272 2.45284291,2.41642912 C2.340659,2.51757854 2.21069732,2.59481992 2.06357088,2.64876628 C1.91644444,2.70271264 1.76257471,2.7290728 1.60134866,2.7290728 C1.44012261,2.7290728 1.28625287,2.70271264 1.13912644,2.64876628 C0.992,2.59481992 0.862038314,2.51757854 0.749854406,2.41642912 C0.637670498,2.31589272 0.548168582,2.19390038 0.481348659,2.05167816 C0.414528736,1.90945594 0.381425287,1.74945594 0.381425287,1.57167816 C0.381425287,1.39696552 0.414528736,1.23757854 0.481348659,1.09596935 Z M0.774988506,1.93704215 C0.821578544,2.04861303 0.885333333,2.14485824 0.965639847,2.2263908 C1.04655939,2.30792337 1.14096552,2.37167816 1.25008429,2.41642912 C1.35920307,2.46240613 1.47629119,2.48508812 1.60134866,2.48508812 C1.72395402,2.48508812 1.84042912,2.46240613 1.94893487,2.41642912 C2.05805364,2.37167816 2.1530728,2.30792337 2.23337931,2.2263908 C2.31429885,2.14485824 2.37805364,2.04861303 2.42586973,1.93704215 C2.47368582,1.82547126 2.49759387,1.70409195 2.49759387,1.57167816 C2.49759387,1.44049042 2.47368582,1.31849808 2.42586973,1.20876628 C2.37805364,1.09842146 2.31429885,1.0034023 2.23337931,0.922482759 C2.1530728,0.842176245 2.05805364,0.779034483 1.94893487,0.733670498 C1.84042912,0.688306513 1.72395402,0.665624521 1.60134866,0.665624521 C1.47629119,0.665624521 1.35920307,0.688306513 1.25008429,0.733670498 C1.14096552,0.779034483 1.04655939,0.842176245 0.965639847,0.922482759 C0.885333333,1.0034023 0.821578544,1.09842146 0.774988506,1.20876628 C0.728398467,1.31849808 0.705716475,1.44049042 0.705716475,1.57167816 C0.705716475,1.70409195 0.728398467,1.82547126 0.774988506,1.93704215 Z M1.63016092,0.922482759 C1.79690421,0.922482759 1.92625287,0.951908046 2.01575479,1.00830651 C2.10586973,1.06715709 2.15123372,1.16524138 2.15123372,1.30623755 C2.15123372,1.36570115 2.14203831,1.41658238 2.12426054,1.45949425 C2.10586973,1.5017931 2.08134866,1.53612261 2.04947126,1.56309579 C2.01759387,1.59006897 1.98019923,1.61029885 1.93790038,1.62439847 C1.89560153,1.63911111 1.85023755,1.64769349 1.80180843,1.6525977 L2.15736398,2.21903448 L1.88088889,2.21903448 L1.55721073,1.66547126 L1.39169349,1.66547126 L1.39169349,2.21903448 L1.12809195,2.21903448 L1.12809195,0.922482759 L1.63016092,0.922482759 Z M1.62648276,1.46439847 C1.70311111,1.46439847 1.76563985,1.45397701 1.81406897,1.4331341 C1.86311111,1.41229119 1.88763218,1.36324904 1.88763218,1.28478161 C1.88763218,1.24983908 1.87904981,1.22163985 1.86188506,1.20079693 C1.84472031,1.18056705 1.82326437,1.16401533 1.79690421,1.15298084 C1.76993103,1.14194636 1.74050575,1.13397701 1.70801533,1.12968582 C1.67491188,1.12600766 1.64364751,1.12355556 1.61422222,1.12355556 L1.39169349,1.12355556 L1.39169349,1.46439847 L1.62648276,1.46439847 Z" id="Fill-26" fill="#000000" mask="url(#mask-4)"></path>
                    </g>
                </g>
            </g>
        </g>
    </g>
</svg>