<?xml version="1.0" encoding="utf-8"?>
<!-- Generator: Adobe Illustrator 16.0.0, SVG Export Plug-In . SVG Version: 6.00 Build 0)  -->
<!DOCTYPE svg PUBLIC "-//W3C//DTD SVG 1.1//EN" "http://www.w3.org/Graphics/SVG/1.1/DTD/svg11.dtd">
<svg version="1.1" id="order_status" xmlns="http://www.w3.org/2000/svg" xmlns:xlink="http://www.w3.org/1999/xlink" x="0px"
	 y="0px" width="130px" height="110px" viewBox="0 0 130 110" enable-background="new 0 0 130 110" xml:space="preserve">
<path fill="#FFFFFF" stroke="#0097CE" stroke-width="1.4855" stroke-miterlimit="10" d="M91.282,64.464h-80.4
	c-1.584,0-2.88-1.38-2.88-3.065V10.065C8.002,8.379,9.298,7,10.882,7h80.4c1.585,0,2.881,1.379,2.881,3.065V61.4
	C94.162,63.084,92.866,64.464,91.282,64.464z"/>
<path fill="#FFFFFF" stroke="#0097CE" stroke-width="1.4438" stroke-miterlimit="10" d="M120.562,64.464H98.243
	c-1.585,0-2.881-1.304-2.881-2.896V23.095c0-1.592,1.296-2.895,2.881-2.895h22.318c1.585,0,2.881,1.303,2.881,2.895v38.474
	C123.442,63.161,122.146,64.464,120.562,64.464z"/>
<path fill="#0097CE" d="M115.971,40.914h-12.784c-1.584,0-2.879-1.62-2.879-3.6v-7.338c0-1.98,1.295-3.6,2.879-3.6h12.784
	c1.585,0,2.88,1.62,2.88,3.6v7.338C118.851,39.295,117.556,40.914,115.971,40.914"/>
<path fill="#FFFFFF" d="M38.628,73.344c0,7.229-5.861,13.09-13.091,13.09s-13.092-5.861-13.092-13.09
	c0-7.23,5.861-13.092,13.092-13.092S38.628,66.114,38.628,73.344"/>
<circle fill="none" stroke="#0097CE" stroke-width="3.84" stroke-miterlimit="10" cx="25.537" cy="73.343" r="13.091"/>
<path fill="#0097CE" d="M30.612,73.418c0,2.762-2.238,5-5,5s-5-2.238-5-5c0-2.761,2.239-5,5-5
	C28.374,68.418,30.612,70.658,30.612,73.418"/>
<path fill="#FFFFFF" d="M110.028,73.344c0,7.229-5.861,13.09-13.092,13.09s-13.091-5.861-13.091-13.09
	c0-7.23,5.86-13.092,13.091-13.092S110.028,66.114,110.028,73.344"/>
<circle fill="none" stroke="#0097CE" stroke-width="3.84" stroke-miterlimit="10" cx="96.937" cy="73.343" r="13.091"/>
<path fill="#0097CE" d="M102.013,73.418c0,2.762-2.238,5-5,5c-2.763,0-5.001-2.238-5.001-5c0-2.761,2.238-5,5.001-5
	C99.774,68.418,102.013,70.658,102.013,73.418"/>
</svg>
