<?xml version="1.0" encoding="utf-8"?>
<!-- Generator: Adobe Illustrator 16.0.0, SVG Export Plug-In . SVG Version: 6.00 Build 0)  -->
<!DOCTYPE svg PUBLIC "-//W3C//DTD SVG 1.1//EN" "http://www.w3.org/Graphics/SVG/1.1/DTD/svg11.dtd">
<svg version="1.1" id="home" xmlns="http://www.w3.org/2000/svg" xmlns:xlink="http://www.w3.org/1999/xlink" x="0px" y="0px"
	 width="130px" height="110px" viewBox="0 0 130 110" enable-background="new 0 0 130 110" xml:space="preserve">
<polygon fill="#FFFFFF" points="28.764,42.218 28.764,103.988 57.494,103.988 57.494,67.373 72.688,67.373 72.688,103.988 
	101.417,103.988 101.417,42.218 "/>
<polygon fill="none" stroke="#0097CE" stroke-width="2.223" stroke-miterlimit="10" points="28.764,42.218 28.764,103.988 
	57.494,103.988 57.494,67.373 72.688,67.373 72.688,103.988 101.417,103.988 101.417,42.218 "/>
<g>
	<path fill="#FFFFFF" d="M18.271,39.742L64.748,7.679c0.207-0.142,0.479-0.142,0.684,0l46.478,32.063
		c0.494,0.34,0.257,1.121-0.34,1.121H18.612C18.015,40.863,17.777,40.082,18.271,39.742"/>
	<path fill="none" stroke="#0097CE" stroke-width="2.223" stroke-miterlimit="10" d="M18.271,39.742L64.748,7.679
		c0.207-0.142,0.479-0.142,0.684,0l46.478,32.063c0.494,0.34,0.257,1.121-0.34,1.121H18.612
		C18.015,40.863,17.777,40.082,18.271,39.742z"/>
	<polygon fill="#FFFFFF" points="68.316,7 83.836,17.157 83.876,7 68.958,7 	"/>
	<polygon fill="none" stroke="#0097CE" stroke-width="2.223" stroke-miterlimit="10" points="68.316,7 83.836,17.157 83.876,7 
		68.958,7 	"/>
</g>
</svg>
