<?xml version="1.0" encoding="utf-8"?>
<!-- Generator: Adobe Illustrator 16.0.0, SVG Export Plug-In . SVG Version: 6.00 Build 0)  -->
<!DOCTYPE svg PUBLIC "-//W3C//DTD SVG 1.1//EN" "http://www.w3.org/Graphics/SVG/1.1/DTD/svg11.dtd">
<svg version="1.1" id="contactUs" xmlns="http://www.w3.org/2000/svg" xmlns:xlink="http://www.w3.org/1999/xlink" x="0px" y="0px"
	 width="130px" height="110px" viewBox="0 0 130 110" enable-background="new 0 0 130 110" xml:space="preserve">
<path fill="#FFFFFF" stroke="#0097CE" stroke-width="1.8" stroke-miterlimit="10" d="M68.063,89.907
	C95.301,88.641,116.9,70.581,116.9,48.489C116.9,25.575,93.663,7,65,7S13.1,25.575,13.1,48.489
	c0,20.325,18.283,37.237,42.418,40.799c0,0-0.928,4.983-10.827,13.712C58.969,99.422,68.063,89.907,68.063,89.907z"/>
<g>
	<path fill="#0097CE" d="M69.016,55.554h-9.853v-1.051c0-1.788,0.189-3.24,0.571-4.356c0.38-1.115,0.946-2.134,1.698-3.056
		c0.752-0.922,2.441-2.545,5.069-4.868c1.399-1.217,2.1-2.333,2.1-3.347c0-1.013-0.281-1.802-0.842-2.365
		c-0.563-0.562-1.414-0.843-2.555-0.843c-1.227,0-2.242,0.433-3.046,1.3c-0.803,0.867-1.318,2.378-1.542,4.536l-10.059-1.328
		c0.346-3.946,1.689-7.122,4.031-9.529c2.342-2.406,5.933-3.609,10.772-3.609c3.768,0,6.809,0.839,9.125,2.517
		c3.146,2.268,4.719,5.292,4.719,9.072c0,1.567-0.406,3.08-1.219,4.536c-0.813,1.457-2.473,3.236-4.979,5.338
		c-1.746,1.475-2.848,2.66-3.305,3.554C69.244,52.95,69.016,54.116,69.016,55.554z M58.826,58.347h10.551v9.931H58.826V58.347z"/>
</g>
</svg>
