<?xml version="1.0" encoding="utf-8"?>
<!-- Generator: Adobe Illustrator 16.0.0, SVG Export Plug-In . SVG Version: 6.00 Build 0)  -->
<!DOCTYPE svg PUBLIC "-//W3C//DTD SVG 1.1//EN" "http://www.w3.org/Graphics/SVG/1.1/DTD/svg11.dtd">
<svg version="1.1" id="account" xmlns="http://www.w3.org/2000/svg" xmlns:xlink="http://www.w3.org/1999/xlink" x="0px" y="0px"
	 width="130px" height="110px" viewBox="0 0 130 110" enable-background="new 0 0 130 110" xml:space="preserve">
<path fill="#FFFFFF" d="M39.542,45.55V32.603C39.542,18.462,51.767,7,66.846,7c15.079,0,27.303,11.462,27.303,25.603v12.654h7.847
	c3.525,0,6.383,2.679,6.383,5.982l-0.104,42.964c0,3.398-2.968,6.18-6.592,6.18H31.591c-3.625,0-6.591-2.781-6.591-6.18
	l0.104-42.964c0-3.304,2.856-5.982,6.382-5.982h8.16"/>
<path fill="none" stroke="#FFFFFF" stroke-width="1.5884" stroke-miterlimit="10" d="M39.542,46.079V33.131
	c0-14.14,12.225-25.601,27.304-25.601c15.079,0,27.303,11.461,27.303,25.601v12.655h7.847c3.525,0,6.383,2.678,6.383,5.983
	l-0.104,42.965c0,3.399-2.968,6.18-6.592,6.18H31.591c-3.625,0-6.591-2.78-6.591-6.18l0.104-42.965c0-3.305,2.856-5.983,6.382-5.983
	h8.16"/>
<path fill="#0097CE" d="M61.918,76.958c-3.598-1.659-6.127-5.084-6.261-9.045c-0.206-6.04,5.059-10.976,11.501-10.782
	c5.833,0.173,10.585,4.629,10.77,10.098c0.15,4.407-2.221,8.041-6.225,9.709"/>
<path fill="none" stroke="#0097CE" stroke-width="1.5884" stroke-miterlimit="10" d="M61.918,76.958
	c-3.598-1.659-6.127-5.084-6.261-9.045c-0.206-6.04,5.059-10.976,11.501-10.782c5.833,0.173,10.585,4.629,10.77,10.098
	c0.15,4.407-2.221,8.041-6.225,9.709"/>
<path fill="#0097CE" d="M61.824,76.743v12.458c0,2.6,2.248,4.708,5.022,4.708c2.773,0,5.021-2.108,5.021-4.708V76.743"/>
<path fill="none" stroke="#0097CE" stroke-width="1.5884" stroke-miterlimit="10" d="M61.824,76.743v12.458
	c0,2.6,2.248,4.708,5.022,4.708c2.773,0,5.021-2.108,5.021-4.708V76.743"/>
<path fill="#0097CE" d="M87.605,49.053H44.86l0.52-14.805c0-11.068,9.568-20.04,21.373-20.04c11.803,0,21.374,8.972,21.374,20.04
	L87.605,49.053z"/>
</svg>
